# xmcd
# 
# Track frame offsets:
#     150
#     16790
#     46005
#     63812
#     84867
#     111820
#     124212
#     138202
#     151582
# 
# Disc length: 2323
# 
# Revision: 5
# Processed by: cddbd v1.5.2PL0 Copyright (c) Steve Scherf et al.
# Submitted via: fre:ac v1.0.27
# 
DISCID=5a091109
DTITLE=The J. Geils Band - Best Of The J. Geils Band
DYEAR=1979
DGENRE=Rock
TTITLE0=Southside Shuffle
TTITLE1=Give it To Me
TTITLE2=Where Did Our Love Go
TTITLE3=(Ain't Nothin' But A) House Party
TTITLE4=Detroit Breakdown
TTITLE5=Whammer Jammer
TTITLE6=I Do
TTITLE7=Musta Got Lost
TTITLE8=Looking For a Love
EXTD=YEAR: 1979
EXTT0=
EXTT1=
EXTT2=
EXTT3=
EXTT4=
EXTT5=
EXTT6=
EXTT7=
EXTT8=
PLAYORDER=
